# WaveFront *.obj file (generated by Autodesk ATF)

mtllib c6dba887-8936-47a7-8552-3e7abb939d6f.mtl

g Body1

v -21.955179 12.463855 5.000000
v -22.057401 13.240312 5.000000
v -22.357103 13.963855 5.000000
v -22.833859 14.585176 5.000000
v -23.455179 15.061932 5.000000
v -24.178722 15.361633 5.000000
v -24.955179 15.463855 5.000000
v -25.731636 15.361633 5.000000
v -26.455179 15.061932 5.000000
v -27.076499 14.585176 5.000000
v -27.553255 13.963855 5.000000
v -27.852956 13.240312 5.000000
v -27.955179 12.463855 5.000000
v -27.852956 11.687398 5.000000
v -27.553255 10.963855 5.000000
v -27.076499 10.342535 5.000000
v -26.455179 9.865779 5.000000
v -25.731636 9.566078 5.000000
v -24.955179 9.463855 5.000000
v -24.178722 9.566078 5.000000
v -23.455179 9.865779 5.000000
v -22.833859 10.342535 5.000000
v -22.357103 10.963855 5.000000
v -22.057401 11.687398 5.000000
v -27.955179 12.463855 0.000000
v -27.852956 13.240312 0.000000
v -27.553255 13.963855 0.000000
v -27.076499 14.585176 0.000000
v -26.455179 15.061932 0.000000
v -25.731636 15.361633 0.000000
v -24.955179 15.463855 0.000000
v -24.178722 15.361633 0.000000
v -23.455179 15.061932 0.000000
v -22.833859 14.585176 0.000000
v -22.357103 13.963855 0.000000
v -22.057401 13.240312 0.000000
v -21.955179 12.463855 0.000000
v -22.057401 11.687398 0.000000
v -22.357103 10.963855 0.000000
v -22.833859 10.342535 0.000000
v -23.455179 9.865779 0.000000
v -24.178722 9.566078 0.000000
v -24.955179 9.463855 0.000000
v -25.731636 9.566078 0.000000
v -26.455179 9.865779 0.000000
v -27.076499 10.342535 0.000000
v -27.553255 10.963855 0.000000
v -27.852956 11.687398 0.000000
v 9.243731 6.170939 1.000000
v 8.323345 6.169718 0.453091
v 7.307612 6.168370 0.114586
v 6.243087 6.166958 0.000000
v 6.185399 8.779525 0.000000
v 7.249955 8.779525 0.114586
v 8.265717 8.779525 0.453091
v 9.186130 8.779525 1.000000
v 0.000000 12.000000 1.000000
v -0.920188 11.993184 0.453091
v -1.935704 11.985662 0.114586
v -3.000000 11.977778 0.000000
v -3.000000 14.000000 0.000000
v -1.935704 14.000000 0.114586
v -0.920188 14.000000 0.453091
v 0.000000 14.000000 1.000000
v 32.960995 8.781680 1.000000
v 68.781680 8.781680 1.000000
v 65.000000 5.000000 1.000000
v 62.500000 7.500000 1.000000
v 60.000000 7.500000 1.000000
v 58.750000 6.250000 1.000000
v 55.359124 6.250000 1.000000
v 53.412309 4.303185 1.000000
v 50.000000 4.303185 1.000000
v 48.432043 6.250000 1.000000
v 45.000000 6.250000 1.000000
v 42.582786 4.303185 1.000000
v 41.014829 6.250000 1.000000
v 35.000000 6.250000 1.000000
v 50.000000 4.303185 4.000000
v 48.432043 6.250000 4.000000
v 53.412309 4.303185 4.000000
v 55.359124 6.250000 4.000000
v 58.750000 6.250000 4.000000
v 60.000000 7.500000 4.000000
v 62.500000 7.500000 4.000000
v 65.000000 5.000000 4.000000
v 68.781680 8.781680 0.000000
v 70.000000 10.000000 0.000000
v 70.000000 10.000000 3.500000
v 70.000000 10.000000 4.000000
v 22.197971 6.188128 0.000000
v 22.197971 6.188128 1.000000
v 29.997324 8.779525 0.000000
v 29.997324 8.779525 1.000000
v 26.856603 6.250000 1.000000
v 25.000000 6.250000 1.000000
v 17.839062 6.091878 0.000000
v 17.839062 4.754699 0.000000
v 0.000000 4.754699 0.000000
v 0.000000 0.000000 0.000000
v -5.000000 -5.000000 0.000000
v -25.000000 -5.000000 0.000000
v -30.000000 0.000000 0.000000
v -30.000000 25.000000 0.000000
v -25.000000 30.000000 0.000000
v -5.000000 30.000000 0.000000
v 0.000000 25.000000 0.000000
v 0.000000 20.000000 0.000000
v 15.000000 20.000000 0.000000
v 15.000000 15.000000 0.000000
v 65.000000 15.000000 0.000000
v 66.000000 14.000000 0.000000
v 67.500000 12.500000 0.000000
v 30.000000 8.781680 0.000000
v 25.000000 6.250000 4.000000
v 17.839062 6.091878 4.000000
v 66.000000 14.000000 1.000000
v 67.500000 12.500000 1.000000
v 65.000000 15.000000 5.000000
v 67.500000 12.500000 5.000000
v 67.500000 12.500000 3.500000
v 17.839062 6.091878 5.000000
v 17.839062 4.754699 5.000000
v 0.000000 4.754699 5.000000
v 10.678124 5.933757 5.000000
v 10.678124 10.000000 5.000000
v 5.000000 10.000000 5.000000
v 5.000000 11.839477 5.000000
v 15.000000 15.000000 5.000000
v 15.000000 20.000000 5.000000
v 0.000000 20.000000 5.000000
v 0.000000 25.000000 5.000000
v -5.000000 30.000000 5.000000
v -25.000000 30.000000 5.000000
v -30.000000 25.000000 5.000000
v -30.000000 0.000000 5.000000
v -25.000000 -5.000000 5.000000
v -5.000000 -5.000000 5.000000
v 0.000000 0.000000 5.000000
v 13.678124 10.000000 4.000000
v 12.757936 10.000000 4.546909
v 11.742421 10.000000 4.885414
v 11.742421 5.957258 4.885414
v 12.757936 5.979681 4.546909
v 13.678124 6.000000 4.000000
v 5.000000 10.000000 3.500000
v 42.582786 4.303185 4.000000
v 41.014829 6.250000 4.000000
v 26.856603 6.250000 4.000000
v 30.000000 8.781680 4.000000
v 32.960995 8.781680 4.000000
v 35.000000 6.250000 4.000000
v 45.000000 6.250000 4.000000
v 5.000000 11.839477 3.500000
vt -0.050000 -0.863938 0.000000
vt -0.550000 -0.863938 0.000000
vt -0.050000 -0.942478 0.000000
vt -0.550000 -0.942478 0.000000
vt -0.050000 0.942478 0.000000
vt -0.550000 0.942478 0.000000
vt -0.050000 0.863938 0.000000
vt -0.550000 0.863938 0.000000
vt -0.050000 0.785398 0.000000
vt -0.550000 0.785398 0.000000
vt -0.050000 0.706858 0.000000
vt -0.550000 0.706858 0.000000
vt -0.050000 0.628319 0.000000
vt -0.550000 0.628319 0.000000
vt -0.050000 0.549779 0.000000
vt -0.550000 0.549779 0.000000
vt -0.050000 0.471239 0.000000
vt -0.550000 0.471239 0.000000
vt -0.050000 0.392699 0.000000
vt -0.550000 0.392699 0.000000
vt -0.050000 0.314159 0.000000
vt -0.550000 0.314159 0.000000
vt -0.050000 0.235619 0.000000
vt -0.550000 0.235619 0.000000
vt -0.050000 0.157080 0.000000
vt -0.550000 0.157080 0.000000
vt -0.050000 0.078540 0.000000
vt -0.550000 0.078540 0.000000
vt -0.050000 -0.000000 0.000000
vt -0.550000 -0.000000 0.000000
vt -0.050000 -0.078540 0.000000
vt -0.550000 -0.078540 0.000000
vt -0.050000 -0.157080 0.000000
vt -0.550000 -0.157080 0.000000
vt -0.050000 -0.235619 0.000000
vt -0.550000 -0.235619 0.000000
vt -0.050000 -0.314159 0.000000
vt -0.550000 -0.314159 0.000000
vt -0.050000 -0.392699 0.000000
vt -0.550000 -0.392699 0.000000
vt -0.050000 -0.471239 0.000000
vt -0.550000 -0.471239 0.000000
vt -0.050000 -0.549779 0.000000
vt -0.550000 -0.549779 0.000000
vt -0.050000 -0.628319 0.000000
vt -0.550000 -0.628319 0.000000
vt -0.050000 -0.706858 0.000000
vt -0.550000 -0.706858 0.000000
vt -0.050000 -0.785398 0.000000
vt -0.550000 -0.785398 0.000000
vt 0.000000 0.000000 0.000000
vt -0.001910 0.107250 0.000000
vt -0.260922 0.000000 0.000000
vt -0.262954 0.107250 0.000000
vt -0.004017 0.214500 0.000000
vt -0.265196 0.214500 0.000000
vt -0.006226 0.321751 0.000000
vt -0.267546 0.321751 0.000000
vt -0.000000 0.000000 0.000000
vt 0.200000 0.000000 0.000000
vt -0.000000 0.107250 0.000000
vt 0.200682 0.107250 0.000000
vt -0.000000 0.214500 0.000000
vt 0.201434 0.214500 0.000000
vt -0.000000 0.321751 0.000000
vt 0.202222 0.321751 0.000000
vt -1.791034 0.223925 0.000000
vt -0.912866 0.095757 0.000000
vt 1.791034 0.223925 0.000000
vt 0.243929 -0.029243 0.000000
vt 0.587134 -0.029243 0.000000
vt -1.412866 -0.154243 0.000000
vt -1.162866 0.095757 0.000000
vt -0.787866 -0.029243 0.000000
vt -0.448779 -0.029243 0.000000
vt -0.254097 -0.223925 0.000000
vt 0.087134 -0.223925 0.000000
vt 0.828855 -0.223925 0.000000
vt 0.985651 -0.029243 0.000000
vt 1.587134 -0.029243 0.000000
vt 0.000000 0.100000 0.000000
vt 0.249972 0.100000 0.000000
vt 0.000000 0.400000 0.000000
vt 0.249972 0.400000 0.000000
vt 0.000000 0.100000 0.000000
vt 0.341231 0.100000 0.000000
vt 0.000000 0.400000 0.000000
vt 0.341231 0.400000 0.000000
vt 0.000000 0.100000 0.000000
vt 0.275321 0.100000 0.000000
vt 0.000000 0.400000 0.000000
vt 0.275321 0.400000 0.000000
vt 0.000000 0.100000 0.000000
vt 0.339088 0.100000 0.000000
vt 0.000000 0.400000 0.000000
vt 0.339088 0.400000 0.000000
vt 0.000000 0.100000 0.000000
vt 0.176777 0.100000 0.000000
vt 0.000000 0.400000 0.000000
vt 0.176777 0.400000 0.000000
vt 0.000000 0.100000 0.000000
vt 0.250000 0.100000 0.000000
vt 0.000000 0.400000 0.000000
vt 0.250000 0.400000 0.000000
vt 0.000000 0.100000 0.000000
vt 0.353553 0.100000 0.000000
vt 0.000000 0.400000 0.000000
vt 0.353553 0.400000 0.000000
vt 0.000000 0.100000 0.000000
vt 0.534810 0.100000 0.000000
vt 0.000000 0.400000 0.000000
vt 0.707107 0.400000 0.000000
vt 0.707107 0.350000 0.000000
vt 0.707107 0.000000 0.000000
vt 0.534810 0.000000 0.000000
vt 0.300065 0.000000 0.000000
vt 0.193612 0.011459 0.000000
vt -1.295425 0.000000 0.000000
vt 0.092039 0.045309 0.000000
vt -0.000000 0.100000 0.000000
vt -1.295425 0.100000 0.000000
vt -2.381193 0.000000 0.000000
vt 0.000000 0.000000 0.000000
vt -2.274737 0.011459 0.000000
vt -2.173161 0.045309 0.000000
vt -2.081119 0.100000 0.000000
vt 0.000000 0.100000 0.000000
vt 1.034800 -0.130429 0.000000
vt 1.040560 0.130429 0.000000
vt -0.260624 -0.128710 0.000000
vt -1.040560 0.130429 0.000000
vt -0.540827 -0.122523 0.000000
vt -0.726488 -0.122523 0.000000
vt 6.285296 -0.046419 0.000000
vt 6.500000 -1.215159 0.000000
vt 6.295518 0.031226 0.000000
vt 6.500000 1.284841 0.000000
vt 6.285296 0.108872 0.000000
vt 6.255326 0.181226 0.000000
vt 6.207650 0.243358 0.000000
vt 6.145518 0.291034 0.000000
vt 6.073164 0.321004 0.000000
vt 5.995518 0.331226 0.000000
vt 5.917872 0.321004 0.000000
vt 3.500000 0.784841 0.000000
vt 5.845518 0.291034 0.000000
vt 3.800000 0.184841 0.000000
vt 5.783386 0.243358 0.000000
vt 5.735710 0.181226 0.000000
vt 5.705740 0.108872 0.000000
vt 5.695518 0.031226 0.000000
vt 3.800000 -0.017381 0.000000
vt 5.705740 -0.046419 0.000000
vt 5.735710 -0.118774 0.000000
vt 5.783386 -0.180906 0.000000
vt 5.845518 -0.228581 0.000000
vt 3.500000 -0.739689 0.000000
vt 5.917872 -0.258551 0.000000
vt 5.995518 -0.268774 0.000000
vt 6.073164 -0.258551 0.000000
vt 6.145518 -0.228581 0.000000
vt 6.207650 -0.180906 0.000000
vt 6.255326 -0.118774 0.000000
vt 1.280203 -0.596346 0.000000
vt 1.716094 -0.605971 0.000000
vt 2.875691 -0.598463 0.000000
vt 1.716094 -0.739689 0.000000
vt 3.500000 -1.215159 0.000000
vt 6.000000 -1.715159 0.000000
vt 4.000000 -1.715159 0.000000
vt 6.000000 1.784841 0.000000
vt 4.000000 1.784841 0.000000
vt 3.500000 1.284841 0.000000
vt 2.000000 0.784841 0.000000
vt 2.000000 0.284841 0.000000
vt -3.000000 0.284841 0.000000
vt -3.100000 0.184841 0.000000
vt -3.250000 0.034841 0.000000
vt 0.500000 -0.336991 0.000000
vt 2.881460 -0.337207 0.000000
vt -3.500000 -0.215159 0.000000
vt -3.378168 -0.336991 0.000000
vt 0.500268 -0.337207 0.000000
vt -0.435997 0.500000 0.000000
vt -0.435997 0.400000 0.000000
vt -0.000000 0.500000 0.000000
vt -0.000000 0.100000 0.000000
vt -0.716268 0.100000 0.000000
vt -0.716268 0.400000 0.000000
vt -6.900000 0.000000 0.000000
vt 0.000000 0.000000 0.000000
vt -6.793570 0.011459 0.000000
vt -6.692019 0.045309 0.000000
vt -6.600000 0.100000 0.000000
vt 0.000000 0.100000 0.000000
vt 0.300008 0.000000 0.000000
vt 0.193576 0.011459 0.000000
vt -6.750185 0.000000 0.000000
vt 0.092021 0.045309 0.000000
vt -0.000000 0.100000 0.000000
vt -6.750185 0.100000 0.000000
vt 3.375000 0.100000 0.000000
vt -3.225000 0.100000 0.000000
vt 3.375000 -0.100000 0.000000
vt -3.375000 -0.050000 0.000000
vt 0.353553 0.000000 0.000000
vt 0.353553 0.100000 0.000000
vt 0.000000 0.000000 0.000000
vt 0.000000 0.350000 0.000000
vt 0.353553 0.350000 0.000000
vt 0.565685 0.100000 0.000000
vt 0.707107 0.500000 0.000000
vt 0.707107 0.000000 0.000000
vt 0.565685 0.000000 0.000000
vt 0.353553 0.500000 0.000000
vt -0.133718 0.000000 0.000000
vt -0.000000 0.000000 0.000000
vt -0.133718 0.100000 0.000000
vt -0.000000 0.500000 0.000000
vt -0.133718 0.500000 0.000000
vt 1.783906 0.500000 0.000000
vt 0.000000 0.500000 0.000000
vt 1.783906 0.000000 0.000000
vt 0.000000 0.000000 0.000000
vt -5.705740 0.108872 0.000000
vt -5.695518 0.031226 0.000000
vt -3.000000 -0.031212 0.000000
vt -5.705740 -0.046419 0.000000
vt -3.000000 -0.215159 0.000000
vt -5.735710 -0.118774 0.000000
vt -5.783386 -0.180906 0.000000
vt -3.500000 -0.739689 0.000000
vt -5.845518 -0.228581 0.000000
vt -5.917872 -0.258551 0.000000
vt -6.500000 -1.215159 0.000000
vt -5.995518 -0.268774 0.000000
vt -6.073164 -0.258551 0.000000
vt -6.145518 -0.228581 0.000000
vt -6.207650 -0.180906 0.000000
vt -6.255326 -0.118774 0.000000
vt -6.285296 -0.046419 0.000000
vt -6.295518 0.031226 0.000000
vt -6.500000 1.284841 0.000000
vt -6.285296 0.108872 0.000000
vt -6.255326 0.181226 0.000000
vt -6.207650 0.243358 0.000000
vt -6.145518 0.291034 0.000000
vt -6.073164 0.321004 0.000000
vt -5.995518 0.331226 0.000000
vt -5.917872 0.321004 0.000000
vt -3.500000 0.784841 0.000000
vt -5.845518 0.291034 0.000000
vt -5.783386 0.243358 0.000000
vt -5.735710 0.181226 0.000000
vt -2.000000 0.284841 0.000000
vt 3.250000 0.034841 0.000000
vt 3.000000 0.284841 0.000000
vt -1.716094 -0.605971 0.000000
vt -2.432188 -0.621784 0.000000
vt -1.716094 -0.739689 0.000000
vt -2.432188 -0.215159 0.000000
vt -2.000000 0.784841 0.000000
vt -3.500000 1.284841 0.000000
vt -6.000000 1.784841 0.000000
vt -4.000000 1.784841 0.000000
vt -6.000000 -1.715159 0.000000
vt -4.000000 -1.715159 0.000000
vt -3.500000 -1.215159 0.000000
vt -0.000000 0.000000 0.000000
vt -0.000000 0.107250 0.000000
vt -0.400000 0.000000 0.000000
vt -0.402032 0.107250 0.000000
vt -0.000000 0.214500 0.000000
vt -0.404274 0.214500 0.000000
vt -0.000000 0.321751 0.000000
vt -0.406624 0.321751 0.000000
vt -5.825758 0.011459 0.000000
vt -5.724206 0.045309 0.000000
vt -5.932188 0.000000 0.000000
vt -6.500000 0.150000 0.000000
vt -6.500000 0.000000 0.000000
vt -5.632188 0.100000 0.000000
vt -0.000000 0.150000 0.000000
vt -0.000000 0.100000 0.000000
vt 0.000000 0.100000 0.000000
vt 0.249972 0.100000 0.000000
vt 0.000000 0.400000 0.000000
vt 0.249972 0.400000 0.000000
vt -0.716268 0.100000 0.000000
vt -1.132464 0.100000 0.000000
vt -0.716268 -0.000000 0.000000
vt -1.224505 0.045309 0.000000
vt -1.326081 0.011459 0.000000
vt -1.432537 -0.000000 0.000000
vt -2.816094 -0.200000 0.000000
vt -2.400000 -0.190812 0.000000
vt -2.816094 0.200000 0.000000
vt -1.683906 -0.175000 0.000000
vt -1.183906 0.078168 0.000000
vt -1.498246 -0.175000 0.000000
vt -0.887807 0.078168 0.000000
vt 2.816094 0.200000 0.000000
vt 1.816094 -0.050000 0.000000
vt 2.066094 -0.050000 0.000000
vt -0.683906 -0.175000 0.000000
vt -0.082423 -0.175000 0.000000
vt 0.316094 -0.175000 0.000000
vt 0.659298 -0.175000 0.000000
vt 0.074372 -0.369681 0.000000
vt 0.816094 -0.369681 0.000000
vt 1.157325 -0.369681 0.000000
vt 1.352006 -0.175000 0.000000
vt 1.691094 -0.175000 0.000000
vt 2.316094 -0.300000 0.000000
vt 0.000000 0.100000 0.000000
vt 0.601483 0.100000 0.000000
vt 0.000000 0.400000 0.000000
vt 0.601483 0.400000 0.000000
vt 0.000000 0.100000 0.000000
vt 0.325068 0.100000 0.000000
vt 0.000000 0.400000 0.000000
vt 0.325068 0.400000 0.000000
vt 0.296099 0.400000 0.000000
vt 0.000000 0.400000 0.000000
vt 0.296099 0.100000 0.000000
vt 0.000000 0.000000 0.000000
vt 3.878168 0.000000 0.000000
vt 3.878168 0.100000 0.000000
vt 0.403269 0.000000 0.000000
vt 0.403613 0.000000 0.000000
vt 0.403269 0.100000 0.000000
vt 0.403613 0.400000 0.000000
vt 0.000000 0.400000 0.000000
vt 0.000000 0.100000 0.000000
vt 0.000000 0.100000 0.000000
vt 0.185660 0.100000 0.000000
vt 0.000000 0.400000 0.000000
vt 0.185660 0.400000 0.000000
vt -6.250349 0.000000 0.000000
vt -0.000000 0.000000 0.000000
vt -6.250349 0.150000 0.000000
vt -0.000000 0.150000 0.000000
vt -0.183948 0.000000 0.000000
vt -0.000000 0.000000 0.000000
vt -0.183948 0.150000 0.000000
vt -0.000000 0.150000 0.000000
vt -3.250000 0.058948 0.000000
vt -3.250000 -0.125000 0.000000
vt 3.000000 0.125000 0.000000
vt 3.250000 -0.125000 0.000000
vt 0.475470 0.500000 0.000000
vt 0.000000 0.500000 0.000000
vt 0.475470 0.000000 0.000000
vt 0.000000 0.000000 0.000000
vt 0.000000 0.000000 0.000000
vt 0.707107 0.000000 0.000000
vt 0.000000 0.500000 0.000000
vt 0.707107 0.500000 0.000000
vt 0.000000 0.000000 0.000000
vt 2.000000 0.000000 0.000000
vt 0.000000 0.500000 0.000000
vt 2.000000 0.500000 0.000000
vt 0.000000 0.000000 0.000000
vt 0.707107 0.000000 0.000000
vt 0.000000 0.500000 0.000000
vt 0.707107 0.500000 0.000000
vt -0.000000 0.000000 0.000000
vt 2.500000 0.000000 0.000000
vt -0.000000 0.500000 0.000000
vt 2.500000 0.500000 0.000000
vt -0.000000 0.000000 0.000000
vt 0.707107 0.000000 0.000000
vt -0.000000 0.500000 0.000000
vt 0.707107 0.500000 0.000000
vt -0.000000 0.000000 0.000000
vt 2.000000 0.000000 0.000000
vt -0.000000 0.500000 0.000000
vt 2.000000 0.500000 0.000000
vt 0.000000 0.000000 0.000000
vt 0.707107 0.000000 0.000000
vt 0.000000 0.500000 0.000000
vt 0.707107 0.500000 0.000000
vt 2.000000 0.000000 0.000000
vt 2.500000 0.000000 0.000000
vt 2.000000 0.500000 0.000000
vt 2.500000 0.500000 0.000000
vt -0.000000 0.000000 0.000000
vt 1.500000 0.000000 0.000000
vt -0.000000 0.500000 0.000000
vt 1.500000 0.500000 0.000000
vt 0.000000 0.000000 0.000000
vt 0.500000 0.000000 0.000000
vt 0.000000 0.500000 0.000000
vt 0.500000 0.500000 0.000000
vt -0.000000 0.000000 0.000000
vt 5.000000 0.000000 0.000000
vt -0.000000 0.500000 0.000000
vt 5.000000 0.500000 0.000000
vt 0.000000 0.100000 0.000000
vt 0.343204 0.100000 0.000000
vt 0.000000 0.400000 0.000000
vt 0.343204 0.400000 0.000000
vt 0.000000 0.100000 0.000000
vt 0.310371 0.100000 0.000000
vt 0.000000 0.400000 0.000000
vt 0.310371 0.400000 0.000000
vn -0.096593 -0.025882 0.000000
vn -0.096593 -0.025882 0.000000
vn -0.100000 -0.000000 0.000000
vn -0.100000 -0.000000 0.000000
vn -0.096593 0.025882 0.000000
vn -0.096593 0.025882 0.000000
vn -0.086603 0.050000 0.000000
vn -0.086603 0.050000 0.000000
vn -0.070711 0.070711 0.000000
vn -0.070711 0.070711 0.000000
vn -0.050000 0.086603 0.000000
vn -0.050000 0.086603 0.000000
vn -0.025882 0.096593 0.000000
vn -0.025882 0.096593 0.000000
vn 0.000000 0.100000 0.000000
vn 0.000000 0.100000 0.000000
vn 0.025882 0.096593 0.000000
vn 0.025882 0.096593 0.000000
vn 0.050000 0.086603 0.000000
vn 0.050000 0.086603 0.000000
vn 0.070711 0.070711 0.000000
vn 0.070711 0.070711 0.000000
vn 0.086603 0.050000 0.000000
vn 0.086603 0.050000 0.000000
vn 0.096593 0.025882 0.000000
vn 0.096593 0.025882 0.000000
vn 0.100000 0.000000 0.000000
vn 0.100000 0.000000 0.000000
vn 0.096593 -0.025882 0.000000
vn 0.096593 -0.025882 0.000000
vn 0.086603 -0.050000 0.000000
vn 0.086603 -0.050000 0.000000
vn 0.070711 -0.070711 0.000000
vn 0.070711 -0.070711 0.000000
vn 0.050000 -0.086603 0.000000
vn 0.050000 -0.086603 0.000000
vn 0.025882 -0.096593 0.000000
vn 0.025882 -0.096593 0.000000
vn 0.000000 -0.100000 0.000000
vn 0.000000 -0.100000 0.000000
vn -0.025882 -0.096593 0.000000
vn -0.025882 -0.096593 0.000000
vn -0.050000 -0.086603 0.000000
vn -0.050000 -0.086603 0.000000
vn -0.070711 -0.070711 0.000000
vn -0.070711 -0.070711 0.000000
vn -0.086603 -0.050000 0.000000
vn -0.086603 -0.050000 0.000000
vn 0.059985 0.001325 -0.080000
vn 0.041586 0.000918 -0.090938
vn 0.059985 0.001325 -0.080000
vn 0.041586 0.000918 -0.090938
vn 0.021281 0.000470 -0.097708
vn 0.021281 0.000470 -0.097708
vn 0.000000 0.000000 -0.100000
vn 0.000000 0.000000 -0.100000
vn 0.060000 0.000000 -0.080000
vn 0.060000 0.000000 -0.080000
vn 0.041596 0.000000 -0.090938
vn 0.041596 0.000000 -0.090938
vn 0.021286 0.000000 -0.097708
vn 0.021286 0.000000 -0.097708
vn -0.000000 0.000000 -0.100000
vn -0.000000 0.000000 -0.100000
vn 0.000000 0.000000 -0.100000
vn 0.000000 0.000000 -0.100000
vn 0.000000 0.000000 -0.100000
vn 0.000000 0.000000 -0.100000
vn 0.000000 0.000000 -0.100000
vn 0.000000 0.000000 -0.100000
vn 0.000000 0.000000 -0.100000
vn 0.000000 0.000000 -0.100000
vn 0.000000 0.000000 -0.100000
vn 0.000000 0.000000 -0.100000
vn 0.000000 0.000000 -0.100000
vn 0.000000 0.000000 -0.100000
vn 0.000000 0.000000 -0.100000
vn 0.000000 0.000000 -0.100000
vn -0.077881 -0.062725 0.000000
vn -0.077881 -0.062725 0.000000
vn -0.077881 -0.062725 0.000000
vn -0.077881 -0.062725 0.000000
vn 0.000000 -0.100000 0.000000
vn 0.000000 -0.100000 0.000000
vn 0.000000 -0.100000 0.000000
vn 0.000000 -0.100000 0.000000
vn 0.070711 -0.070711 0.000000
vn 0.070711 -0.070711 0.000000
vn 0.070711 -0.070711 0.000000
vn 0.070711 -0.070711 0.000000
vn 0.000000 -0.100000 0.000000
vn 0.000000 -0.100000 0.000000
vn 0.000000 -0.100000 0.000000
vn 0.000000 -0.100000 0.000000
vn 0.070711 -0.070711 0.000000
vn 0.070711 -0.070711 0.000000
vn 0.070711 -0.070711 0.000000
vn 0.070711 -0.070711 0.000000
vn 0.000000 -0.100000 0.000000
vn 0.000000 -0.100000 0.000000
vn 0.000000 -0.100000 0.000000
vn 0.000000 -0.100000 0.000000
vn -0.070711 -0.070711 0.000000
vn -0.070711 -0.070711 0.000000
vn -0.070711 -0.070711 0.000000
vn -0.070711 -0.070711 0.000000
vn 0.070711 -0.070711 0.000000
vn 0.070711 -0.070711 0.000000
vn 0.070711 -0.070711 0.000000
vn 0.070711 -0.070711 0.000000
vn 0.070711 -0.070711 0.000000
vn 0.070711 -0.070711 0.000000
vn 0.070711 -0.070711 0.000000
vn -0.000133 0.100000 -0.000000
vn -0.000133 0.100000 -0.000000
vn -0.000133 0.100000 -0.000000
vn -0.000133 0.100000 -0.000000
vn -0.000133 0.100000 -0.000000
vn -0.000133 0.100000 -0.000000
vn 0.000000 -0.100000 0.000000
vn 0.000000 -0.100000 0.000000
vn 0.000000 -0.100000 0.000000
vn 0.000000 -0.100000 0.000000
vn 0.000000 -0.100000 0.000000
vn 0.000000 -0.100000 0.000000
vn 0.000000 0.000000 -0.100000
vn 0.000000 0.000000 -0.100000
vn 0.000000 0.000000 -0.100000
vn 0.000000 0.000000 -0.100000
vn 0.000000 0.000000 -0.100000
vn 0.000000 0.000000 -0.100000
vn -0.000000 0.000000 -0.100000
vn -0.000000 0.000000 -0.100000
vn -0.000000 0.000000 -0.100000
vn -0.000000 0.000000 -0.100000
vn -0.000000 0.000000 -0.100000
vn -0.000000 0.000000 -0.100000
vn -0.000000 0.000000 -0.100000
vn -0.000000 0.000000 -0.100000
vn -0.000000 0.000000 -0.100000
vn -0.000000 0.000000 -0.100000
vn -0.000000 0.000000 -0.100000
vn -0.000000 0.000000 -0.100000
vn -0.000000 0.000000 -0.100000
vn -0.000000 0.000000 -0.100000
vn -0.000000 0.000000 -0.100000
vn -0.000000 0.000000 -0.100000
vn -0.000000 0.000000 -0.100000
vn -0.000000 0.000000 -0.100000
vn -0.000000 0.000000 -0.100000
vn -0.000000 0.000000 -0.100000
vn -0.000000 0.000000 -0.100000
vn -0.000000 0.000000 -0.100000
vn -0.000000 0.000000 -0.100000
vn -0.000000 0.000000 -0.100000
vn -0.000000 0.000000 -0.100000
vn -0.000000 0.000000 -0.100000
vn -0.000000 0.000000 -0.100000
vn -0.000000 0.000000 -0.100000
vn -0.000000 0.000000 -0.100000
vn -0.000000 0.000000 -0.100000
vn -0.000000 0.000000 -0.100000
vn -0.000000 0.000000 -0.100000
vn -0.000000 0.000000 -0.100000
vn -0.000000 0.000000 -0.100000
vn -0.000000 0.000000 -0.100000
vn -0.000000 0.000000 -0.100000
vn -0.000000 0.000000 -0.100000
vn -0.000000 0.000000 -0.100000
vn -0.000000 0.000000 -0.100000
vn -0.000000 0.000000 -0.100000
vn -0.000000 0.000000 -0.100000
vn -0.000000 0.000000 -0.100000
vn -0.000000 0.000000 -0.100000
vn -0.000000 0.000000 -0.100000
vn -0.000000 0.000000 -0.100000
vn -0.000000 0.000000 -0.100000
vn 0.002208 -0.099976 0.000000
vn 0.002208 -0.099976 0.000000
vn 0.002208 -0.099976 0.000000
vn 0.002208 -0.099976 0.000000
vn 0.002208 -0.099976 0.000000
vn 0.002208 -0.099976 0.000000
vn 0.000000 -0.100000 0.000000
vn 0.000000 -0.100000 0.000000
vn 0.000000 -0.100000 0.000000
vn 0.000000 -0.100000 0.000000
vn 0.000000 -0.100000 0.000000
vn 0.000000 -0.100000 0.000000
vn -0.000741 0.099997 -0.000000
vn -0.000741 0.099997 -0.000000
vn -0.000741 0.099997 -0.000000
vn -0.000741 0.099997 -0.000000
vn -0.000741 0.099997 -0.000000
vn -0.000741 0.099997 -0.000000
vn 0.000000 0.000000 -0.100000
vn 0.000000 0.000000 -0.100000
vn 0.000000 0.000000 -0.100000
vn 0.000000 0.000000 -0.100000
vn 0.070711 0.070711 0.000000
vn 0.070711 0.070711 0.000000
vn 0.070711 0.070711 0.000000
vn 0.070711 0.070711 0.000000
vn 0.070711 0.070711 0.000000
vn 0.070711 0.070711 0.000000
vn 0.070711 0.070711 0.000000
vn 0.070711 0.070711 0.000000
vn 0.070711 0.070711 0.000000
vn 0.070711 0.070711 0.000000
vn 0.100000 0.000000 0.000000
vn 0.100000 0.000000 0.000000
vn 0.100000 0.000000 0.000000
vn 0.100000 0.000000 0.000000
vn 0.100000 0.000000 0.000000
vn 0.000000 -0.100000 0.000000
vn 0.000000 -0.100000 0.000000
vn 0.000000 -0.100000 0.000000
vn 0.000000 -0.100000 0.000000
vn 0.000000 0.000000 0.100000
vn 0.000000 0.000000 0.100000
vn 0.000000 0.000000 0.100000
vn 0.000000 0.000000 0.100000
vn 0.000000 0.000000 0.100000
vn 0.000000 0.000000 0.100000
vn 0.000000 0.000000 0.100000
vn 0.000000 0.000000 0.100000
vn 0.000000 0.000000 0.100000
vn 0.000000 0.000000 0.100000
vn 0.000000 0.000000 0.100000
vn 0.000000 0.000000 0.100000
vn 0.000000 0.000000 0.100000
vn 0.000000 0.000000 0.100000
vn 0.000000 0.000000 0.100000
vn 0.000000 0.000000 0.100000
vn 0.000000 0.000000 0.100000
vn 0.000000 0.000000 0.100000
vn 0.000000 0.000000 0.100000
vn 0.000000 0.000000 0.100000
vn 0.000000 0.000000 0.100000
vn 0.000000 0.000000 0.100000
vn 0.000000 0.000000 0.100000
vn 0.000000 0.000000 0.100000
vn 0.000000 0.000000 0.100000
vn 0.000000 0.000000 0.100000
vn 0.000000 0.000000 0.100000
vn 0.000000 0.000000 0.100000
vn 0.000000 0.000000 0.100000
vn 0.000000 0.000000 0.100000
vn 0.000000 0.000000 0.100000
vn 0.000000 0.000000 0.100000
vn 0.000000 0.000000 0.100000
vn 0.000000 0.000000 0.100000
vn 0.000000 0.000000 0.100000
vn 0.000000 0.000000 0.100000
vn 0.000000 0.000000 0.100000
vn 0.000000 0.000000 0.100000
vn 0.000000 0.000000 0.100000
vn 0.000000 0.000000 0.100000
vn 0.000000 0.000000 0.100000
vn 0.000000 0.000000 0.100000
vn 0.000000 0.000000 0.100000
vn 0.000000 0.000000 0.100000
vn 0.060000 0.000000 0.080000
vn 0.041596 0.000000 0.090938
vn 0.060000 0.000000 0.080000
vn 0.041596 0.000000 0.090938
vn 0.021286 0.000000 0.097708
vn 0.021286 0.000000 0.097708
vn -0.000000 0.100000 -0.000000
vn -0.000000 0.100000 -0.000000
vn -0.000000 0.100000 -0.000000
vn -0.000000 0.100000 -0.000000
vn -0.000000 0.100000 -0.000000
vn -0.000000 0.100000 -0.000000
vn -0.000000 0.100000 -0.000000
vn -0.000000 0.100000 -0.000000
vn -0.077881 -0.062725 0.000000
vn -0.077881 -0.062725 0.000000
vn -0.077881 -0.062725 0.000000
vn -0.077881 -0.062725 0.000000
vn -0.002208 0.099976 -0.000000
vn -0.002208 0.099976 -0.000000
vn -0.002208 0.099976 -0.000000
vn -0.002208 0.099976 -0.000000
vn -0.002208 0.099976 -0.000000
vn -0.002208 0.099976 -0.000000
vn 0.000000 0.000000 0.100000
vn 0.000000 0.000000 0.100000
vn 0.000000 0.000000 0.100000
vn 0.000000 0.000000 0.100000
vn 0.000000 0.000000 0.100000
vn 0.000000 0.000000 0.100000
vn 0.000000 0.000000 0.100000
vn 0.000000 0.000000 0.100000
vn 0.000000 0.000000 0.100000
vn 0.000000 0.000000 0.100000
vn 0.000000 0.000000 0.100000
vn 0.000000 0.000000 0.100000
vn 0.000000 0.000000 0.100000
vn 0.000000 0.000000 0.100000
vn 0.000000 0.000000 0.100000
vn 0.000000 0.000000 0.100000
vn 0.000000 0.000000 0.100000
vn 0.000000 0.000000 0.100000
vn 0.000000 0.000000 0.100000
vn 0.000000 0.000000 0.100000
vn 0.000000 -0.100000 0.000000
vn 0.000000 -0.100000 0.000000
vn 0.000000 -0.100000 0.000000
vn 0.000000 -0.100000 0.000000
vn -0.077881 -0.062725 0.000000
vn -0.077881 -0.062725 0.000000
vn -0.077881 -0.062725 0.000000
vn -0.077881 -0.062725 0.000000
vn 0.000000 -0.100000 0.000000
vn 0.000000 -0.100000 0.000000
vn 0.000000 -0.100000 0.000000
vn 0.000000 -0.100000 0.000000
vn 0.000000 -0.100000 0.000000
vn 0.000000 -0.100000 0.000000
vn 0.062725 -0.077881 0.000000
vn 0.062725 -0.077881 0.000000
vn 0.062725 -0.077881 0.000000
vn 0.062725 -0.077881 0.000000
vn 0.062725 -0.077881 0.000000
vn 0.062725 -0.077881 0.000000
vn 0.000000 -0.100000 0.000000
vn 0.000000 -0.100000 0.000000
vn 0.000000 -0.100000 0.000000
vn 0.000000 -0.100000 0.000000
vn 0.001057 -0.099994 0.000000
vn 0.001057 -0.099994 0.000000
vn 0.001057 -0.099994 0.000000
vn 0.001057 -0.099994 0.000000
vn 0.100000 0.000000 0.000000
vn 0.100000 0.000000 0.000000
vn 0.100000 0.000000 0.000000
vn 0.100000 0.000000 0.000000
vn 0.000000 0.000000 0.100000
vn 0.000000 0.000000 0.100000
vn 0.000000 0.000000 0.100000
vn 0.000000 0.000000 0.100000
vn 0.100000 0.000000 0.000000
vn 0.100000 0.000000 0.000000
vn 0.100000 0.000000 0.000000
vn 0.100000 0.000000 0.000000
vn 0.070711 -0.070711 0.000000
vn 0.070711 -0.070711 0.000000
vn 0.070711 -0.070711 0.000000
vn 0.070711 -0.070711 0.000000
vn 0.000000 -0.100000 0.000000
vn 0.000000 -0.100000 0.000000
vn 0.000000 -0.100000 0.000000
vn 0.000000 -0.100000 0.000000
vn -0.070711 -0.070711 0.000000
vn -0.070711 -0.070711 0.000000
vn -0.070711 -0.070711 0.000000
vn -0.070711 -0.070711 0.000000
vn -0.100000 0.000000 0.000000
vn -0.100000 0.000000 0.000000
vn -0.100000 0.000000 0.000000
vn -0.100000 0.000000 0.000000
vn -0.070711 0.070711 0.000000
vn -0.070711 0.070711 0.000000
vn -0.070711 0.070711 0.000000
vn -0.070711 0.070711 0.000000
vn 0.000000 0.100000 0.000000
vn 0.000000 0.100000 0.000000
vn 0.000000 0.100000 0.000000
vn 0.000000 0.100000 0.000000
vn 0.070711 0.070711 0.000000
vn 0.070711 0.070711 0.000000
vn 0.070711 0.070711 0.000000
vn 0.070711 0.070711 0.000000
vn 0.100000 0.000000 0.000000
vn 0.100000 0.000000 0.000000
vn 0.100000 0.000000 0.000000
vn 0.100000 0.000000 0.000000
vn 0.000000 0.100000 0.000000
vn 0.000000 0.100000 0.000000
vn 0.000000 0.100000 0.000000
vn 0.000000 0.100000 0.000000
vn 0.100000 0.000000 0.000000
vn 0.100000 0.000000 0.000000
vn 0.100000 0.000000 0.000000
vn 0.100000 0.000000 0.000000
vn 0.000000 0.100000 0.000000
vn 0.000000 0.100000 0.000000
vn 0.000000 0.100000 0.000000
vn 0.000000 0.100000 0.000000
vn 0.000000 -0.100000 0.000000
vn 0.000000 -0.100000 0.000000
vn 0.000000 -0.100000 0.000000
vn 0.000000 -0.100000 0.000000
vn 0.062725 -0.077881 0.000000
vn 0.062725 -0.077881 0.000000
vn 0.062725 -0.077881 0.000000
vn 0.062725 -0.077881 0.000000
usemtl Steel_-_Satin
f 2/1/1 36/2/2 1/3/3
f 1/3/3 36/2/2 37/4/4
f 1/5/3 37/6/4 24/7/5
f 24/7/5 37/6/4 38/8/6
f 24/7/5 38/8/6 23/9/7
f 23/9/7 38/8/6 39/10/8
f 23/9/7 39/10/8 22/11/9
f 22/11/9 39/10/8 40/12/10
f 22/11/9 40/12/10 21/13/11
f 21/13/11 40/12/10 41/14/12
f 21/13/11 41/14/12 20/15/13
f 20/15/13 41/14/12 42/16/14
f 20/15/13 42/16/14 19/17/15
f 19/17/15 42/16/14 43/18/16
f 19/17/15 43/18/16 18/19/17
f 18/19/17 43/18/16 44/20/18
f 18/19/17 44/20/18 17/21/19
f 17/21/19 44/20/18 45/22/20
f 17/21/19 45/22/20 16/23/21
f 16/23/21 45/22/20 46/24/22
f 16/23/21 46/24/22 15/25/23
f 15/25/23 46/24/22 47/26/24
f 15/25/23 47/26/24 14/27/25
f 14/27/25 47/26/24 48/28/26
f 14/27/25 48/28/26 13/29/27
f 13/29/27 48/28/26 25/30/28
f 13/29/27 25/30/28 12/31/29
f 12/31/29 25/30/28 26/32/30
f 12/31/29 26/32/30 11/33/31
f 11/33/31 26/32/30 27/34/32
f 11/33/31 27/34/32 10/35/33
f 10/35/33 27/34/32 28/36/34
f 10/35/33 28/36/34 9/37/35
f 9/37/35 28/36/34 29/38/36
f 9/37/35 29/38/36 8/39/37
f 8/39/37 29/38/36 30/40/38
f 8/39/37 30/40/38 7/41/39
f 7/41/39 30/40/38 31/42/40
f 7/41/39 31/42/40 6/43/41
f 6/43/41 31/42/40 32/44/42
f 6/43/41 32/44/42 5/45/43
f 5/45/43 32/44/42 33/46/44
f 5/45/43 33/46/44 4/47/45
f 4/47/45 33/46/44 34/48/46
f 4/47/45 34/48/46 3/49/47
f 3/49/47 34/48/46 35/50/48
f 3/49/47 35/50/48 2/1/1
f 2/1/1 35/50/48 36/2/2
f 49/51/49 50/52/50 56/53/51
f 56/53/51 50/52/50 55/54/52
f 55/54/52 50/52/50 51/55/53
f 55/54/52 51/55/53 54/56/54
f 54/56/54 51/55/53 52/57/55
f 54/56/54 52/57/55 53/58/56
f 64/59/57 57/60/58 63/61/59
f 63/61/59 57/60/58 58/62/60
f 63/61/59 58/62/60 62/63/61
f 62/63/61 58/62/60 59/64/62
f 62/63/61 59/64/62 61/65/63
f 61/65/63 59/64/62 60/66/64
f 66/67/65 69/68/66 65/69/67
f 65/69/67 69/68/66 74/70/68
f 65/69/67 74/70/68 75/71/69
f 67/72/70 68/73/71 66/67/65
f 66/67/65 68/73/71 69/68/66
f 70/74/72 71/75/73 69/68/66
f 69/68/66 71/75/73 74/70/68
f 71/75/73 72/76/74 74/70/68
f 74/70/68 72/76/74 73/77/75
f 76/78/76 77/79/77 75/71/69
f 75/71/69 77/79/77 65/69/67
f 77/79/77 78/80/78 65/69/67
f 74/81/79 73/82/80 80/83/81
f 80/83/81 73/82/80 79/84/82
f 73/85/83 72/86/84 79/87/85
f 79/87/85 72/86/84 81/88/86
f 72/89/87 71/90/88 81/91/89
f 81/91/89 71/90/88 82/92/90
f 71/93/91 70/94/92 82/95/93
f 82/95/93 70/94/92 83/96/94
f 70/97/95 69/98/96 83/99/97
f 83/99/97 69/98/96 84/100/98
f 69/101/99 68/102/100 84/103/101
f 84/103/101 68/102/100 85/104/102
f 68/105/103 67/106/104 85/107/105
f 85/107/105 67/106/104 86/108/106
f 67/109/107 66/110/108 86/111/109
f 86/111/109 66/110/108 90/112/110
f 90/112/110 66/110/108 89/113/111
f 89/113/111 66/110/108 88/114/112
f 88/114/112 66/110/108 87/115/113
f 52/116/114 51/117/115 91/118/116
f 91/118/116 51/117/115 50/119/117
f 91/118/116 50/119/117 49/120/118
f 49/120/118 92/121/119 91/118/116
f 53/122/120 93/123/121 54/124/122
f 54/124/122 93/123/121 55/125/123
f 55/125/123 93/123/121 56/126/124
f 56/126/124 93/123/121 94/127/125
f 49/128/126 56/129/127 92/130/128
f 92/130/128 56/129/127 94/131/129
f 92/130/128 94/131/129 96/132/130
f 96/132/130 94/131/129 95/133/131
f 48/134/132 103/135/133 25/136/134
f 25/136/134 103/135/133 104/137/135
f 25/136/134 104/137/135 26/138/136
f 26/138/136 104/137/135 27/139/137
f 27/139/137 104/137/135 28/140/138
f 28/140/138 104/137/135 29/141/139
f 29/141/139 104/137/135 30/142/140
f 30/142/140 104/137/135 31/143/141
f 31/143/141 104/137/135 32/144/142
f 32/144/142 104/137/135 108/145/143
f 32/144/142 108/145/143 33/146/144
f 33/146/144 108/145/143 61/147/63
f 33/146/144 61/147/63 34/148/145
f 34/148/145 61/147/63 35/149/146
f 35/149/146 61/147/63 36/150/147
f 36/150/147 61/147/63 37/151/148
f 37/151/148 61/147/63 60/152/64
f 37/151/148 60/152/64 38/153/149
f 38/153/149 60/152/64 39/154/150
f 39/154/150 60/152/64 40/155/151
f 40/155/151 60/152/64 41/156/152
f 41/156/152 60/152/64 99/157/153
f 41/156/152 99/157/153 42/158/154
f 42/158/154 99/157/153 103/135/133
f 42/158/154 103/135/133 43/159/155
f 43/159/155 103/135/133 44/160/156
f 44/160/156 103/135/133 45/161/157
f 45/161/157 103/135/133 46/162/158
f 46/162/158 103/135/133 47/163/159
f 47/163/159 103/135/133 48/134/132
f 91/164/160 97/165/161 52/166/55
f 52/166/55 97/165/161 98/167/162
f 52/166/55 98/167/162 99/157/153
f 99/157/153 100/168/163 103/135/133
f 103/135/133 100/168/163 102/169/164
f 102/169/164 100/168/163 101/170/165
f 105/171/166 106/172/167 104/137/135
f 104/137/135 106/172/167 107/173/168
f 104/137/135 107/173/168 108/145/143
f 109/174/169 110/175/170 108/145/143
f 108/145/143 110/175/170 61/147/63
f 111/176/171 112/177/172 110/175/170
f 110/175/170 112/177/172 61/147/63
f 113/178/173 114/179/174 60/152/64
f 60/152/64 114/179/174 53/180/56
f 60/152/64 53/180/56 99/157/153
f 99/157/153 53/180/56 52/166/55
f 88/181/175 87/182/176 113/178/173
f 113/178/173 87/182/176 114/179/174
f 114/179/174 93/183/177 53/180/56
f 91/184/178 92/185/179 97/186/180
f 97/186/180 92/185/179 116/187/181
f 116/187/181 92/185/179 115/188/182
f 115/188/182 92/185/179 96/189/183
f 61/190/184 112/191/185 62/192/186
f 62/192/186 112/191/185 63/193/187
f 63/193/187 112/191/185 64/194/188
f 64/194/188 112/191/185 117/195/189
f 60/196/190 59/197/191 113/198/192
f 113/198/192 59/197/191 58/199/193
f 113/198/192 58/199/193 57/200/194
f 57/200/194 118/201/195 113/198/192
f 64/202/196 117/203/197 57/204/198
f 57/204/198 117/203/197 118/205/199
f 113/206/200 118/207/201 88/208/202
f 88/208/202 118/207/201 89/209/203
f 89/209/203 118/207/201 121/210/204
f 121/210/204 118/207/201 117/211/205
f 121/210/204 117/211/205 119/212/206
f 119/212/206 117/211/205 111/213/207
f 111/213/207 117/211/205 112/214/208
f 119/212/206 120/215/209 121/210/204
f 122/216/210 123/217/211 116/218/212
f 116/218/212 123/217/211 98/219/213
f 116/218/212 98/219/213 97/220/214
f 123/221/215 124/222/216 98/223/217
f 98/223/217 124/222/216 99/224/218
f 2/225/219 1/226/220 128/227/221
f 128/227/221 1/226/220 24/228/222
f 128/227/221 24/228/222 127/229/223
f 127/229/223 24/228/222 23/230/224
f 127/229/223 23/230/224 22/231/225
f 127/229/223 22/231/225 124/232/226
f 124/232/226 22/231/225 21/233/227
f 124/232/226 21/233/227 20/234/228
f 124/232/226 20/234/228 136/235/229
f 136/235/229 20/234/228 19/236/230
f 136/235/229 19/236/230 18/237/231
f 18/237/231 17/238/232 136/235/229
f 136/235/229 17/238/232 16/239/233
f 136/235/229 16/239/233 15/240/234
f 15/240/234 14/241/235 136/235/229
f 136/235/229 14/241/235 13/242/236
f 136/235/229 13/242/236 135/243/237
f 135/243/237 13/242/236 12/244/238
f 135/243/237 12/244/238 11/245/239
f 11/245/239 10/246/240 135/243/237
f 135/243/237 10/246/240 9/247/241
f 135/243/237 9/247/241 8/248/242
f 8/248/242 7/249/243 135/243/237
f 135/243/237 7/249/243 6/250/244
f 135/243/237 6/250/244 131/251/245
f 131/251/245 6/250/244 5/252/246
f 131/251/245 5/252/246 4/253/247
f 4/253/247 3/254/248 131/251/245
f 131/251/245 3/254/248 128/227/221
f 131/251/245 128/227/221 129/255/249
f 129/255/249 128/227/221 120/256/250
f 129/255/249 120/256/250 119/257/251
f 3/254/248 2/225/219 128/227/221
f 122/258/252 125/259/253 123/260/254
f 123/260/254 125/259/253 124/232/226
f 124/232/226 125/259/253 127/229/223
f 125/259/253 126/261/255 127/229/223
f 129/255/249 130/262/256 131/251/245
f 131/251/245 132/263/257 135/243/237
f 135/243/237 132/263/257 134/264/258
f 134/264/258 132/263/257 133/265/259
f 137/266/260 138/267/261 136/235/229
f 136/235/229 138/267/261 139/268/262
f 136/235/229 139/268/262 124/232/226
f 140/269/263 141/270/264 145/271/265
f 145/271/265 141/270/264 144/272/266
f 144/272/266 141/270/264 142/273/267
f 144/272/266 142/273/267 143/274/268
f 143/274/268 142/273/267 126/275/255
f 143/274/268 126/275/255 125/276/253
f 142/277/269 141/278/270 126/279/271
f 126/279/271 141/278/270 146/280/272
f 126/279/271 146/280/272 127/281/273
f 141/278/270 140/282/274 146/280/272
f 146/280/272 140/282/274 89/283/275
f 89/283/275 140/282/274 90/284/276
f 77/285/277 76/286/278 148/287/279
f 148/287/279 76/286/278 147/288/280
f 116/289/281 145/290/282 122/291/283
f 122/291/283 145/290/282 144/292/284
f 122/291/283 144/292/284 143/293/285
f 143/293/285 125/294/286 122/291/283
f 145/295/287 116/296/288 140/297/289
f 140/297/289 116/296/288 115/298/290
f 140/297/289 115/298/290 150/299/291
f 150/299/291 115/298/290 149/300/292
f 150/299/291 151/301/293 140/297/289
f 140/297/289 151/301/293 90/302/294
f 90/302/294 151/301/293 84/303/295
f 90/302/294 84/303/295 85/304/296
f 152/305/297 148/306/298 151/301/293
f 151/301/293 148/306/298 153/307/299
f 151/301/293 153/307/299 80/308/300
f 148/306/298 147/309/301 153/307/299
f 79/310/302 81/311/303 80/308/300
f 80/308/300 81/311/303 82/312/304
f 80/308/300 82/312/304 84/303/295
f 84/303/295 82/312/304 83/313/305
f 85/304/296 86/314/306 90/302/294
f 80/308/300 84/303/295 151/301/293
f 78/315/307 77/316/308 152/317/309
f 152/317/309 77/316/308 148/318/310
f 65/319/311 78/320/312 151/321/313
f 151/321/313 78/320/312 152/322/314
f 151/323/315 150/324/316 65/325/317
f 65/325/317 150/324/316 114/326/318
f 65/325/317 114/326/318 87/327/319
f 87/327/319 66/328/320 65/325/317
f 93/329/321 114/330/322 94/331/323
f 94/331/323 114/330/322 150/332/324
f 94/331/323 150/332/324 149/333/325
f 149/333/325 95/334/326 94/331/323
f 96/335/327 95/336/328 115/337/329
f 115/337/329 95/336/328 149/338/330
f 120/339/331 128/340/332 121/341/333
f 121/341/333 128/340/332 154/342/334
f 128/343/335 127/344/336 154/345/337
f 154/345/337 127/344/336 146/346/338
f 154/347/339 146/348/340 121/349/341
f 121/349/341 146/348/340 89/350/342
f 124/351/343 139/352/344 99/353/345
f 99/353/345 139/352/344 100/354/346
f 101/355/347 100/356/348 138/357/349
f 138/357/349 100/356/348 139/358/350
f 102/359/351 101/360/352 137/361/353
f 137/361/353 101/360/352 138/362/354
f 103/363/355 102/364/356 136/365/357
f 136/365/357 102/364/356 137/366/358
f 104/367/359 103/368/360 135/369/361
f 135/369/361 103/368/360 136/370/362
f 105/371/363 104/372/364 134/373/365
f 134/373/365 104/372/364 135/374/366
f 106/375/367 105/376/368 133/377/369
f 133/377/369 105/376/368 134/378/370
f 107/379/371 106/380/372 132/381/373
f 132/381/373 106/380/372 133/382/374
f 108/383/375 107/384/376 131/385/377
f 131/385/377 107/384/376 132/386/378
f 109/387/379 108/388/380 130/389/381
f 130/389/381 108/388/380 131/390/382
f 110/391/383 109/392/384 129/393/385
f 129/393/385 109/392/384 130/394/386
f 111/395/387 110/396/388 119/397/389
f 119/397/389 110/396/388 129/398/390
f 75/399/391 74/400/392 153/401/393
f 153/401/393 74/400/392 80/402/394
f 76/403/395 75/404/396 147/405/397
f 147/405/397 75/404/396 153/406/398

# 154 vertices
# 406 texture params
# 398 normals
# 308 facets

# 1 groups
